<?xml version="1.0" encoding="utf-8" standalone="no"?>
<!DOCTYPE svg PUBLIC "-//W3C//DTD SVG 1.1//EN"
  "http://www.w3.org/Graphics/SVG/1.1/DTD/svg11.dtd">
<svg xmlns:xlink="http://www.w3.org/1999/xlink" width="1944pt" height="432pt" viewBox="0 0 1944 432" xmlns="http://www.w3.org/2000/svg" version="1.1">
 <metadata>
  <rdf:RDF xmlns:dc="http://purl.org/dc/elements/1.1/" xmlns:cc="http://creativecommons.org/ns#" xmlns:rdf="http://www.w3.org/1999/02/22-rdf-syntax-ns#">
   <cc:Work>
    <dc:type rdf:resource="http://purl.org/dc/dcmitype/StillImage"/>
    <dc:date>2024-02-26T23:50:04.859540</dc:date>
    <dc:format>image/svg+xml</dc:format>
    <dc:creator>
     <cc:Agent>
      <dc:title>Matplotlib v3.7.5, https://matplotlib.org/</dc:title>
     </cc:Agent>
    </dc:creator>
   </cc:Work>
  </rdf:RDF>
 </metadata>
 <defs>
  <style type="text/css">*{stroke-linejoin: round; stroke-linecap: butt}</style>
 </defs>
 <g id="figure_1">
  <g id="patch_1">
   <path d="M 0 432 
L 1944 432 
L 1944 0 
L 0 0 
z
" style="fill: #ffffff"/>
  </g>
  <g id="axes_1">
   <g id="patch_2">
    <path d="M 243 384.48 
L 1749.6 384.48 
L 1749.6 51.84 
L 243 51.84 
z
" style="fill: #eaeaf2"/>
   </g>
   <g id="matplotlib.axis_1">
    <g id="xtick_1">
     <g id="line2d_1">
      <path d="M 306.089549 384.48 
L 306.089549 51.84 
" clip-path="url(#pe62d6e2876)" style="fill: none; stroke: #ffffff; stroke-width: 0.8; stroke-linecap: round"/>
     </g>
     <g id="text_1">
      <!-- 2021-05 -->
      <g style="fill: #262626" transform="translate(264.306737 406.676875) scale(0.2 -0.2)">
       <defs>
        <path id="DejaVuSans-32" d="M 1228 531 
L 3431 531 
L 3431 0 
L 469 0 
L 469 531 
Q 828 903 1448 1529 
Q 2069 2156 2228 2338 
Q 2531 2678 2651 2914 
Q 2772 3150 2772 3378 
Q 2772 3750 2511 3984 
Q 2250 4219 1831 4219 
Q 1534 4219 1204 4116 
Q 875 4013 500 3803 
L 500 4441 
Q 881 4594 1212 4672 
Q 1544 4750 1819 4750 
Q 2544 4750 2975 4387 
Q 3406 4025 3406 3419 
Q 3406 3131 3298 2873 
Q 3191 2616 2906 2266 
Q 2828 2175 2409 1742 
Q 1991 1309 1228 531 
z
" transform="scale(0.015625)"/>
        <path id="DejaVuSans-30" d="M 2034 4250 
Q 1547 4250 1301 3770 
Q 1056 3291 1056 2328 
Q 1056 1369 1301 889 
Q 1547 409 2034 409 
Q 2525 409 2770 889 
Q 3016 1369 3016 2328 
Q 3016 3291 2770 3770 
Q 2525 4250 2034 4250 
z
M 2034 4750 
Q 2819 4750 3233 4129 
Q 3647 3509 3647 2328 
Q 3647 1150 3233 529 
Q 2819 -91 2034 -91 
Q 1250 -91 836 529 
Q 422 1150 422 2328 
Q 422 3509 836 4129 
Q 1250 4750 2034 4750 
z
" transform="scale(0.015625)"/>
        <path id="DejaVuSans-31" d="M 794 531 
L 1825 531 
L 1825 4091 
L 703 3866 
L 703 4441 
L 1819 4666 
L 2450 4666 
L 2450 531 
L 3481 531 
L 3481 0 
L 794 0 
L 794 531 
z
" transform="scale(0.015625)"/>
        <path id="DejaVuSans-2d" d="M 313 2009 
L 1997 2009 
L 1997 1497 
L 313 1497 
L 313 2009 
z
" transform="scale(0.015625)"/>
        <path id="DejaVuSans-35" d="M 691 4666 
L 3169 4666 
L 3169 4134 
L 1269 4134 
L 1269 2991 
Q 1406 3038 1543 3061 
Q 1681 3084 1819 3084 
Q 2600 3084 3056 2656 
Q 3513 2228 3513 1497 
Q 3513 744 3044 326 
Q 2575 -91 1722 -91 
Q 1428 -91 1123 -41 
Q 819 9 494 109 
L 494 744 
Q 775 591 1075 516 
Q 1375 441 1709 441 
Q 2250 441 2565 725 
Q 2881 1009 2881 1497 
Q 2881 1984 2565 2268 
Q 2250 2553 1709 2553 
Q 1456 2553 1204 2497 
Q 953 2441 691 2322 
L 691 4666 
z
" transform="scale(0.015625)"/>
       </defs>
       <use xlink:href="#DejaVuSans-32"/>
       <use xlink:href="#DejaVuSans-30" x="63.623047"/>
       <use xlink:href="#DejaVuSans-32" x="127.246094"/>
       <use xlink:href="#DejaVuSans-31" x="190.869141"/>
       <use xlink:href="#DejaVuSans-2d" x="254.492188"/>
       <use xlink:href="#DejaVuSans-30" x="290.576172"/>
       <use xlink:href="#DejaVuSans-35" x="354.199219"/>
      </g>
     </g>
    </g>
    <g id="xtick_2">
     <g id="line2d_2">
      <path d="M 471.901825 384.48 
L 471.901825 51.84 
" clip-path="url(#pe62d6e2876)" style="fill: none; stroke: #ffffff; stroke-width: 0.8; stroke-linecap: round"/>
     </g>
     <g id="text_2">
      <!-- 2021-09 -->
      <g style="fill: #262626" transform="translate(430.119013 406.676875) scale(0.2 -0.2)">
       <defs>
        <path id="DejaVuSans-39" d="M 703 97 
L 703 672 
Q 941 559 1184 500 
Q 1428 441 1663 441 
Q 2288 441 2617 861 
Q 2947 1281 2994 2138 
Q 2813 1869 2534 1725 
Q 2256 1581 1919 1581 
Q 1219 1581 811 2004 
Q 403 2428 403 3163 
Q 403 3881 828 4315 
Q 1253 4750 1959 4750 
Q 2769 4750 3195 4129 
Q 3622 3509 3622 2328 
Q 3622 1225 3098 567 
Q 2575 -91 1691 -91 
Q 1453 -91 1209 -44 
Q 966 3 703 97 
z
M 1959 2075 
Q 2384 2075 2632 2365 
Q 2881 2656 2881 3163 
Q 2881 3666 2632 3958 
Q 2384 4250 1959 4250 
Q 1534 4250 1286 3958 
Q 1038 3666 1038 3163 
Q 1038 2656 1286 2365 
Q 1534 2075 1959 2075 
z
" transform="scale(0.015625)"/>
       </defs>
       <use xlink:href="#DejaVuSans-32"/>
       <use xlink:href="#DejaVuSans-30" x="63.623047"/>
       <use xlink:href="#DejaVuSans-32" x="127.246094"/>
       <use xlink:href="#DejaVuSans-31" x="190.869141"/>
       <use xlink:href="#DejaVuSans-2d" x="254.492188"/>
       <use xlink:href="#DejaVuSans-30" x="290.576172"/>
       <use xlink:href="#DejaVuSans-39" x="354.199219"/>
      </g>
     </g>
    </g>
    <g id="xtick_3">
     <g id="line2d_3">
      <path d="M 636.366034 384.48 
L 636.366034 51.84 
" clip-path="url(#pe62d6e2876)" style="fill: none; stroke: #ffffff; stroke-width: 0.8; stroke-linecap: round"/>
     </g>
     <g id="text_3">
      <!-- 2022-01 -->
      <g style="fill: #262626" transform="translate(594.583222 406.676875) scale(0.2 -0.2)">
       <use xlink:href="#DejaVuSans-32"/>
       <use xlink:href="#DejaVuSans-30" x="63.623047"/>
       <use xlink:href="#DejaVuSans-32" x="127.246094"/>
       <use xlink:href="#DejaVuSans-32" x="190.869141"/>
       <use xlink:href="#DejaVuSans-2d" x="254.492188"/>
       <use xlink:href="#DejaVuSans-30" x="290.576172"/>
       <use xlink:href="#DejaVuSans-31" x="354.199219"/>
      </g>
     </g>
    </g>
    <g id="xtick_4">
     <g id="line2d_4">
      <path d="M 798.134109 384.48 
L 798.134109 51.84 
" clip-path="url(#pe62d6e2876)" style="fill: none; stroke: #ffffff; stroke-width: 0.8; stroke-linecap: round"/>
     </g>
     <g id="text_4">
      <!-- 2022-05 -->
      <g style="fill: #262626" transform="translate(756.351296 406.676875) scale(0.2 -0.2)">
       <use xlink:href="#DejaVuSans-32"/>
       <use xlink:href="#DejaVuSans-30" x="63.623047"/>
       <use xlink:href="#DejaVuSans-32" x="127.246094"/>
       <use xlink:href="#DejaVuSans-32" x="190.869141"/>
       <use xlink:href="#DejaVuSans-2d" x="254.492188"/>
       <use xlink:href="#DejaVuSans-30" x="290.576172"/>
       <use xlink:href="#DejaVuSans-35" x="354.199219"/>
      </g>
     </g>
    </g>
    <g id="xtick_5">
     <g id="line2d_5">
      <path d="M 963.946385 384.48 
L 963.946385 51.84 
" clip-path="url(#pe62d6e2876)" style="fill: none; stroke: #ffffff; stroke-width: 0.8; stroke-linecap: round"/>
     </g>
     <g id="text_5">
      <!-- 2022-09 -->
      <g style="fill: #262626" transform="translate(922.163573 406.676875) scale(0.2 -0.2)">
       <use xlink:href="#DejaVuSans-32"/>
       <use xlink:href="#DejaVuSans-30" x="63.623047"/>
       <use xlink:href="#DejaVuSans-32" x="127.246094"/>
       <use xlink:href="#DejaVuSans-32" x="190.869141"/>
       <use xlink:href="#DejaVuSans-2d" x="254.492188"/>
       <use xlink:href="#DejaVuSans-30" x="290.576172"/>
       <use xlink:href="#DejaVuSans-39" x="354.199219"/>
      </g>
     </g>
    </g>
    <g id="xtick_6">
     <g id="line2d_6">
      <path d="M 1128.410594 384.48 
L 1128.410594 51.84 
" clip-path="url(#pe62d6e2876)" style="fill: none; stroke: #ffffff; stroke-width: 0.8; stroke-linecap: round"/>
     </g>
     <g id="text_6">
      <!-- 2023-01 -->
      <g style="fill: #262626" transform="translate(1086.627782 406.676875) scale(0.2 -0.2)">
       <defs>
        <path id="DejaVuSans-33" d="M 2597 2516 
Q 3050 2419 3304 2112 
Q 3559 1806 3559 1356 
Q 3559 666 3084 287 
Q 2609 -91 1734 -91 
Q 1441 -91 1130 -33 
Q 819 25 488 141 
L 488 750 
Q 750 597 1062 519 
Q 1375 441 1716 441 
Q 2309 441 2620 675 
Q 2931 909 2931 1356 
Q 2931 1769 2642 2001 
Q 2353 2234 1838 2234 
L 1294 2234 
L 1294 2753 
L 1863 2753 
Q 2328 2753 2575 2939 
Q 2822 3125 2822 3475 
Q 2822 3834 2567 4026 
Q 2313 4219 1838 4219 
Q 1578 4219 1281 4162 
Q 984 4106 628 3988 
L 628 4550 
Q 988 4650 1302 4700 
Q 1616 4750 1894 4750 
Q 2613 4750 3031 4423 
Q 3450 4097 3450 3541 
Q 3450 3153 3228 2886 
Q 3006 2619 2597 2516 
z
" transform="scale(0.015625)"/>
       </defs>
       <use xlink:href="#DejaVuSans-32"/>
       <use xlink:href="#DejaVuSans-30" x="63.623047"/>
       <use xlink:href="#DejaVuSans-32" x="127.246094"/>
       <use xlink:href="#DejaVuSans-33" x="190.869141"/>
       <use xlink:href="#DejaVuSans-2d" x="254.492188"/>
       <use xlink:href="#DejaVuSans-30" x="290.576172"/>
       <use xlink:href="#DejaVuSans-31" x="354.199219"/>
      </g>
     </g>
    </g>
    <g id="xtick_7">
     <g id="line2d_7">
      <path d="M 1290.178669 384.48 
L 1290.178669 51.84 
" clip-path="url(#pe62d6e2876)" style="fill: none; stroke: #ffffff; stroke-width: 0.8; stroke-linecap: round"/>
     </g>
     <g id="text_7">
      <!-- 2023-05 -->
      <g style="fill: #262626" transform="translate(1248.395856 406.676875) scale(0.2 -0.2)">
       <use xlink:href="#DejaVuSans-32"/>
       <use xlink:href="#DejaVuSans-30" x="63.623047"/>
       <use xlink:href="#DejaVuSans-32" x="127.246094"/>
       <use xlink:href="#DejaVuSans-33" x="190.869141"/>
       <use xlink:href="#DejaVuSans-2d" x="254.492188"/>
       <use xlink:href="#DejaVuSans-30" x="290.576172"/>
       <use xlink:href="#DejaVuSans-35" x="354.199219"/>
      </g>
     </g>
    </g>
    <g id="xtick_8">
     <g id="line2d_8">
      <path d="M 1455.990945 384.48 
L 1455.990945 51.84 
" clip-path="url(#pe62d6e2876)" style="fill: none; stroke: #ffffff; stroke-width: 0.8; stroke-linecap: round"/>
     </g>
     <g id="text_8">
      <!-- 2023-09 -->
      <g style="fill: #262626" transform="translate(1414.208132 406.676875) scale(0.2 -0.2)">
       <use xlink:href="#DejaVuSans-32"/>
       <use xlink:href="#DejaVuSans-30" x="63.623047"/>
       <use xlink:href="#DejaVuSans-32" x="127.246094"/>
       <use xlink:href="#DejaVuSans-33" x="190.869141"/>
       <use xlink:href="#DejaVuSans-2d" x="254.492188"/>
       <use xlink:href="#DejaVuSans-30" x="290.576172"/>
       <use xlink:href="#DejaVuSans-39" x="354.199219"/>
      </g>
     </g>
    </g>
    <g id="xtick_9">
     <g id="line2d_9">
      <path d="M 1620.455154 384.48 
L 1620.455154 51.84 
" clip-path="url(#pe62d6e2876)" style="fill: none; stroke: #ffffff; stroke-width: 0.8; stroke-linecap: round"/>
     </g>
     <g id="text_9">
      <!-- 2024-01 -->
      <g style="fill: #262626" transform="translate(1578.672341 406.676875) scale(0.2 -0.2)">
       <defs>
        <path id="DejaVuSans-34" d="M 2419 4116 
L 825 1625 
L 2419 1625 
L 2419 4116 
z
M 2253 4666 
L 3047 4666 
L 3047 1625 
L 3713 1625 
L 3713 1100 
L 3047 1100 
L 3047 0 
L 2419 0 
L 2419 1100 
L 313 1100 
L 313 1709 
L 2253 4666 
z
" transform="scale(0.015625)"/>
       </defs>
       <use xlink:href="#DejaVuSans-32"/>
       <use xlink:href="#DejaVuSans-30" x="63.623047"/>
       <use xlink:href="#DejaVuSans-32" x="127.246094"/>
       <use xlink:href="#DejaVuSans-34" x="190.869141"/>
       <use xlink:href="#DejaVuSans-2d" x="254.492188"/>
       <use xlink:href="#DejaVuSans-30" x="290.576172"/>
       <use xlink:href="#DejaVuSans-31" x="354.199219"/>
      </g>
     </g>
    </g>
   </g>
   <g id="matplotlib.axis_2">
    <g id="ytick_1">
     <g id="line2d_10">
      <path d="M 243 371.128421 
L 1749.6 371.128421 
" clip-path="url(#pe62d6e2876)" style="fill: none; stroke: #ffffff; stroke-width: 0.8; stroke-linecap: round"/>
     </g>
     <g id="text_10">
      <!-- 0 -->
      <g style="fill: #262626" transform="translate(223.275 378.726859) scale(0.2 -0.2)">
       <use xlink:href="#DejaVuSans-30"/>
      </g>
     </g>
    </g>
    <g id="ytick_2">
     <g id="line2d_11">
      <path d="M 243 326.917895 
L 1749.6 326.917895 
" clip-path="url(#pe62d6e2876)" style="fill: none; stroke: #ffffff; stroke-width: 0.8; stroke-linecap: round"/>
     </g>
     <g id="text_11">
      <!-- 25 -->
      <g style="fill: #262626" transform="translate(210.55 334.516332) scale(0.2 -0.2)">
       <use xlink:href="#DejaVuSans-32"/>
       <use xlink:href="#DejaVuSans-35" x="63.623047"/>
      </g>
     </g>
    </g>
    <g id="ytick_3">
     <g id="line2d_12">
      <path d="M 243 282.707368 
L 1749.6 282.707368 
" clip-path="url(#pe62d6e2876)" style="fill: none; stroke: #ffffff; stroke-width: 0.8; stroke-linecap: round"/>
     </g>
     <g id="text_12">
      <!-- 50 -->
      <g style="fill: #262626" transform="translate(210.55 290.305806) scale(0.2 -0.2)">
       <use xlink:href="#DejaVuSans-35"/>
       <use xlink:href="#DejaVuSans-30" x="63.623047"/>
      </g>
     </g>
    </g>
    <g id="ytick_4">
     <g id="line2d_13">
      <path d="M 243 238.496842 
L 1749.6 238.496842 
" clip-path="url(#pe62d6e2876)" style="fill: none; stroke: #ffffff; stroke-width: 0.8; stroke-linecap: round"/>
     </g>
     <g id="text_13">
      <!-- 75 -->
      <g style="fill: #262626" transform="translate(210.55 246.09528) scale(0.2 -0.2)">
       <defs>
        <path id="DejaVuSans-37" d="M 525 4666 
L 3525 4666 
L 3525 4397 
L 1831 0 
L 1172 0 
L 2766 4134 
L 525 4134 
L 525 4666 
z
" transform="scale(0.015625)"/>
       </defs>
       <use xlink:href="#DejaVuSans-37"/>
       <use xlink:href="#DejaVuSans-35" x="63.623047"/>
      </g>
     </g>
    </g>
    <g id="ytick_5">
     <g id="line2d_14">
      <path d="M 243 194.286316 
L 1749.6 194.286316 
" clip-path="url(#pe62d6e2876)" style="fill: none; stroke: #ffffff; stroke-width: 0.8; stroke-linecap: round"/>
     </g>
     <g id="text_14">
      <!-- 100 -->
      <g style="fill: #262626" transform="translate(197.825 201.884753) scale(0.2 -0.2)">
       <use xlink:href="#DejaVuSans-31"/>
       <use xlink:href="#DejaVuSans-30" x="63.623047"/>
       <use xlink:href="#DejaVuSans-30" x="127.246094"/>
      </g>
     </g>
    </g>
    <g id="ytick_6">
     <g id="line2d_15">
      <path d="M 243 150.075789 
L 1749.6 150.075789 
" clip-path="url(#pe62d6e2876)" style="fill: none; stroke: #ffffff; stroke-width: 0.8; stroke-linecap: round"/>
     </g>
     <g id="text_15">
      <!-- 125 -->
      <g style="fill: #262626" transform="translate(197.825 157.674227) scale(0.2 -0.2)">
       <use xlink:href="#DejaVuSans-31"/>
       <use xlink:href="#DejaVuSans-32" x="63.623047"/>
       <use xlink:href="#DejaVuSans-35" x="127.246094"/>
      </g>
     </g>
    </g>
    <g id="ytick_7">
     <g id="line2d_16">
      <path d="M 243 105.865263 
L 1749.6 105.865263 
" clip-path="url(#pe62d6e2876)" style="fill: none; stroke: #ffffff; stroke-width: 0.8; stroke-linecap: round"/>
     </g>
     <g id="text_16">
      <!-- 150 -->
      <g style="fill: #262626" transform="translate(197.825 113.463701) scale(0.2 -0.2)">
       <use xlink:href="#DejaVuSans-31"/>
       <use xlink:href="#DejaVuSans-35" x="63.623047"/>
       <use xlink:href="#DejaVuSans-30" x="127.246094"/>
      </g>
     </g>
    </g>
    <g id="ytick_8">
     <g id="line2d_17">
      <path d="M 243 61.654737 
L 1749.6 61.654737 
" clip-path="url(#pe62d6e2876)" style="fill: none; stroke: #ffffff; stroke-width: 0.8; stroke-linecap: round"/>
     </g>
     <g id="text_17">
      <!-- 175 -->
      <g style="fill: #262626" transform="translate(197.825 69.253174) scale(0.2 -0.2)">
       <use xlink:href="#DejaVuSans-31"/>
       <use xlink:href="#DejaVuSans-37" x="63.623047"/>
       <use xlink:href="#DejaVuSans-35" x="127.246094"/>
      </g>
     </g>
    </g>
   </g>
   <g id="line2d_18">
    <path d="M 311.481818 367.591579 
L 1287.482534 360.517895 
L 1288.830601 279.170526 
L 1290.178669 259.717895 
L 1291.526736 291.549474 
L 1292.874803 335.76 
L 1294.22287 305.696842 
L 1295.570938 309.233684 
L 1298.267072 307.465263 
L 1299.61514 355.212632 
L 1300.963207 351.675789 
L 1302.311274 353.444211 
L 1303.659341 341.065263 
L 1305.007409 323.381053 
L 1306.355476 300.391579 
L 1307.703543 268.56 
L 1309.051611 353.444211 
L 1310.399678 282.707368 
L 1311.747745 369.36 
L 1313.095812 312.770526 
L 1314.44388 314.538947 
L 1315.791947 273.865263 
L 1317.140014 275.633684 
L 1318.488082 353.444211 
L 1319.836149 234.96 
L 1321.184216 335.76 
L 1322.532283 312.770526 
L 1323.880351 312.770526 
L 1325.228418 335.76 
L 1326.576485 295.086316 
L 1327.924553 309.233684 
L 1329.27262 351.675789 
L 1330.620687 348.138947 
L 1331.968754 349.907368 
L 1333.316822 339.296842 
L 1334.664889 333.991579 
L 1336.012956 344.602105 
L 1337.361024 302.16 
L 1338.709091 337.528421 
L 1340.057158 325.149474 
L 1341.405225 318.075789 
L 1342.753293 312.770526 
L 1344.10136 355.212632 
L 1345.449427 342.833684 
L 1346.797495 362.286316 
L 1348.145562 337.528421 
L 1349.493629 325.149474 
L 1350.841696 319.844211 
L 1352.189764 298.623158 
L 1353.537831 325.149474 
L 1354.885898 325.149474 
L 1356.233966 364.054737 
L 1357.582033 367.591579 
L 1358.9301 355.212632 
L 1360.278168 328.686316 
L 1361.626235 298.623158 
L 1362.974302 250.875789 
L 1364.322369 302.16 
L 1365.670437 288.012632 
L 1367.018504 332.223158 
L 1368.366571 266.791579 
L 1369.714639 250.875789 
L 1371.062706 348.138947 
L 1372.410773 309.233684 
L 1373.75884 330.454737 
L 1375.106908 238.496842 
L 1376.454975 325.149474 
L 1377.803042 351.675789 
L 1379.15111 341.065263 
L 1380.499177 289.781053 
L 1381.847244 309.233684 
L 1383.195311 326.917895 
L 1384.543379 360.517895 
L 1385.891446 321.612632 
L 1387.239513 326.917895 
L 1388.587581 344.602105 
L 1389.935648 296.854737 
L 1391.283715 333.991579 
L 1392.631782 259.717895 
L 1393.97985 236.728421 
L 1395.327917 332.223158 
L 1396.675984 325.149474 
L 1398.024052 358.749474 
L 1399.372119 348.138947 
L 1400.720186 288.012632 
L 1402.068253 295.086316 
L 1403.416321 217.275789 
L 1404.764388 288.012632 
L 1406.112455 300.391579 
L 1407.460523 323.381053 
L 1408.80859 296.854737 
L 1410.156657 234.96 
L 1411.504724 293.317895 
L 1412.852792 289.781053 
L 1414.200859 279.170526 
L 1415.548926 325.149474 
L 1416.896994 339.296842 
L 1418.245061 247.338947 
L 1419.593128 318.075789 
L 1420.941195 245.570526 
L 1422.289263 346.370526 
L 1423.63733 321.612632 
L 1424.985397 333.991579 
L 1426.333465 332.223158 
L 1427.681532 303.928421 
L 1429.029599 333.991579 
L 1430.377666 356.981053 
L 1431.725734 323.381053 
L 1433.073801 273.865263 
L 1434.421868 342.833684 
L 1435.769936 323.381053 
L 1437.118003 309.233684 
L 1438.46607 351.675789 
L 1439.814137 328.686316 
L 1441.162205 316.307368 
L 1442.510272 342.833684 
L 1443.858339 341.065263 
L 1445.206407 263.254737 
L 1446.554474 323.381053 
L 1449.250608 351.675789 
L 1450.598676 364.054737 
L 1451.946743 330.454737 
L 1453.29481 337.528421 
L 1454.642878 326.917895 
L 1455.990945 280.938947 
L 1457.339012 307.465263 
L 1458.687079 316.307368 
L 1460.035147 332.223158 
L 1461.383214 282.707368 
L 1462.731281 339.296842 
L 1464.079349 342.833684 
L 1465.427416 242.033684 
L 1466.775483 319.844211 
L 1468.12355 326.917895 
L 1469.471618 300.391579 
L 1470.819685 277.402105 
L 1472.167752 353.444211 
L 1473.51582 261.486316 
L 1474.863887 183.675789 
L 1476.211954 342.833684 
L 1477.560021 330.454737 
L 1478.908089 273.865263 
L 1480.256156 337.528421 
L 1481.604223 325.149474 
L 1482.952291 358.749474 
L 1484.300358 319.844211 
L 1485.648425 312.770526 
L 1486.996492 335.76 
L 1488.34456 319.844211 
L 1489.692627 231.423158 
L 1491.040694 341.065263 
L 1492.388762 302.16 
L 1493.736829 351.675789 
L 1495.084896 325.149474 
L 1496.432963 263.254737 
L 1497.781031 339.296842 
L 1499.129098 351.675789 
L 1500.477165 332.223158 
L 1501.825233 351.675789 
L 1503.1733 316.307368 
L 1504.521367 261.486316 
L 1505.869435 351.675789 
L 1507.217502 355.212632 
L 1508.565569 302.16 
L 1509.913636 323.381053 
L 1511.261704 333.991579 
L 1512.609771 339.296842 
L 1513.957838 293.317895 
L 1515.305906 275.633684 
L 1516.653973 279.170526 
L 1518.00204 353.444211 
L 1519.350107 332.223158 
L 1520.698175 238.496842 
L 1522.046242 316.307368 
L 1523.394309 270.328421 
L 1524.742377 151.844211 
L 1526.090444 311.002105 
L 1527.438511 311.002105 
L 1528.786578 335.76 
L 1530.134646 302.16 
L 1531.482713 240.265263 
L 1532.83078 273.865263 
L 1534.178848 282.707368 
L 1535.526915 346.370526 
L 1536.874982 268.56 
L 1538.223049 201.36 
L 1539.571117 303.928421 
L 1540.919184 289.781053 
L 1542.267251 284.475789 
L 1543.615319 307.465263 
L 1544.963386 353.444211 
L 1546.311453 346.370526 
L 1549.007588 240.265263 
L 1550.355655 337.528421 
L 1551.703722 342.833684 
L 1553.05179 321.612632 
L 1554.399857 203.128421 
L 1555.747924 353.444211 
L 1557.095991 356.981053 
L 1558.444059 351.675789 
L 1559.792126 254.412632 
L 1561.140193 272.096842 
L 1562.488261 325.149474 
L 1563.836328 367.591579 
L 1565.184395 355.212632 
L 1566.532462 328.686316 
L 1567.88053 335.76 
L 1569.228597 240.265263 
L 1570.576664 355.212632 
L 1571.924732 332.223158 
L 1573.272799 367.591579 
L 1574.620866 325.149474 
L 1575.968933 226.117895 
L 1577.317001 249.107368 
L 1578.665068 279.170526 
L 1580.013135 312.770526 
L 1581.361203 325.149474 
L 1582.70927 333.991579 
L 1584.057337 303.928421 
L 1585.405404 337.528421 
L 1586.753472 298.623158 
L 1588.101539 321.612632 
L 1589.449606 314.538947 
L 1590.797674 349.907368 
L 1592.145741 349.907368 
L 1593.493808 318.075789 
L 1594.841875 318.075789 
L 1596.189943 233.191579 
L 1597.53801 339.296842 
L 1598.886077 337.528421 
L 1600.234145 348.138947 
L 1601.582212 257.949474 
L 1602.930279 66.96 
L 1604.278346 289.781053 
L 1605.626414 344.602105 
L 1606.974481 192.517895 
L 1608.322548 318.075789 
L 1609.670616 326.917895 
L 1611.018683 326.917895 
L 1612.36675 369.36 
L 1613.714817 303.928421 
L 1615.062885 360.517895 
L 1616.410952 369.36 
L 1617.759019 263.254737 
L 1619.107087 367.591579 
L 1620.455154 339.296842 
L 1621.803221 326.917895 
L 1623.151288 355.212632 
L 1624.499356 277.402105 
L 1625.847423 349.907368 
L 1627.19549 351.675789 
L 1628.543558 344.602105 
L 1629.891625 307.465263 
L 1631.239692 293.317895 
L 1632.587759 330.454737 
L 1633.935827 328.686316 
L 1635.283894 369.36 
L 1637.980029 319.844211 
L 1639.328096 360.517895 
L 1640.676163 330.454737 
L 1642.02423 353.444211 
L 1643.372298 337.528421 
L 1644.720365 333.991579 
L 1646.068432 288.012632 
L 1647.4165 279.170526 
L 1648.764567 275.633684 
L 1650.112634 321.612632 
L 1651.460702 360.517895 
L 1652.808769 333.991579 
L 1654.156836 263.254737 
L 1655.504903 348.138947 
L 1656.852971 307.465263 
L 1658.201038 330.454737 
L 1659.549105 326.917895 
L 1660.897173 360.517895 
L 1662.24524 311.002105 
L 1663.593307 298.623158 
L 1666.289442 319.844211 
L 1668.985576 312.770526 
L 1670.333644 332.223158 
L 1671.681711 346.370526 
L 1673.029778 286.244211 
L 1674.377845 337.528421 
L 1675.725913 341.065263 
L 1677.07398 339.296842 
L 1678.422047 341.065263 
L 1679.770115 291.549474 
L 1681.118182 360.517895 
L 1681.118182 360.517895 
" clip-path="url(#pe62d6e2876)" style="fill: none; stroke: #1f77b4; stroke-width: 1.5; stroke-linecap: round"/>
   </g>
   <g id="patch_3">
    <path d="M 243 384.48 
L 243 51.84 
" style="fill: none; stroke: #ffffff; stroke-width: 0.8; stroke-linejoin: miter; stroke-linecap: square"/>
   </g>
   <g id="patch_4">
    <path d="M 1749.6 384.48 
L 1749.6 51.84 
" style="fill: none; stroke: #ffffff; stroke-width: 0.8; stroke-linejoin: miter; stroke-linecap: square"/>
   </g>
   <g id="patch_5">
    <path d="M 243 384.48 
L 1749.6 384.48 
" style="fill: none; stroke: #ffffff; stroke-width: 0.8; stroke-linejoin: miter; stroke-linecap: square"/>
   </g>
   <g id="patch_6">
    <path d="M 243 51.84 
L 1749.6 51.84 
" style="fill: none; stroke: #ffffff; stroke-width: 0.8; stroke-linejoin: miter; stroke-linecap: square"/>
   </g>
   <g id="text_18">
    <!-- Messages sent per day over a time period -->
    <g style="fill: #262626" transform="translate(743.3475 45.84) scale(0.24 -0.24)">
     <defs>
      <path id="DejaVuSans-4d" d="M 628 4666 
L 1569 4666 
L 2759 1491 
L 3956 4666 
L 4897 4666 
L 4897 0 
L 4281 0 
L 4281 4097 
L 3078 897 
L 2444 897 
L 1241 4097 
L 1241 0 
L 628 0 
L 628 4666 
z
" transform="scale(0.015625)"/>
      <path id="DejaVuSans-65" d="M 3597 1894 
L 3597 1613 
L 953 1613 
Q 991 1019 1311 708 
Q 1631 397 2203 397 
Q 2534 397 2845 478 
Q 3156 559 3463 722 
L 3463 178 
Q 3153 47 2828 -22 
Q 2503 -91 2169 -91 
Q 1331 -91 842 396 
Q 353 884 353 1716 
Q 353 2575 817 3079 
Q 1281 3584 2069 3584 
Q 2775 3584 3186 3129 
Q 3597 2675 3597 1894 
z
M 3022 2063 
Q 3016 2534 2758 2815 
Q 2500 3097 2075 3097 
Q 1594 3097 1305 2825 
Q 1016 2553 972 2059 
L 3022 2063 
z
" transform="scale(0.015625)"/>
      <path id="DejaVuSans-73" d="M 2834 3397 
L 2834 2853 
Q 2591 2978 2328 3040 
Q 2066 3103 1784 3103 
Q 1356 3103 1142 2972 
Q 928 2841 928 2578 
Q 928 2378 1081 2264 
Q 1234 2150 1697 2047 
L 1894 2003 
Q 2506 1872 2764 1633 
Q 3022 1394 3022 966 
Q 3022 478 2636 193 
Q 2250 -91 1575 -91 
Q 1294 -91 989 -36 
Q 684 19 347 128 
L 347 722 
Q 666 556 975 473 
Q 1284 391 1588 391 
Q 1994 391 2212 530 
Q 2431 669 2431 922 
Q 2431 1156 2273 1281 
Q 2116 1406 1581 1522 
L 1381 1569 
Q 847 1681 609 1914 
Q 372 2147 372 2553 
Q 372 3047 722 3315 
Q 1072 3584 1716 3584 
Q 2034 3584 2315 3537 
Q 2597 3491 2834 3397 
z
" transform="scale(0.015625)"/>
      <path id="DejaVuSans-61" d="M 2194 1759 
Q 1497 1759 1228 1600 
Q 959 1441 959 1056 
Q 959 750 1161 570 
Q 1363 391 1709 391 
Q 2188 391 2477 730 
Q 2766 1069 2766 1631 
L 2766 1759 
L 2194 1759 
z
M 3341 1997 
L 3341 0 
L 2766 0 
L 2766 531 
Q 2569 213 2275 61 
Q 1981 -91 1556 -91 
Q 1019 -91 701 211 
Q 384 513 384 1019 
Q 384 1609 779 1909 
Q 1175 2209 1959 2209 
L 2766 2209 
L 2766 2266 
Q 2766 2663 2505 2880 
Q 2244 3097 1772 3097 
Q 1472 3097 1187 3025 
Q 903 2953 641 2809 
L 641 3341 
Q 956 3463 1253 3523 
Q 1550 3584 1831 3584 
Q 2591 3584 2966 3190 
Q 3341 2797 3341 1997 
z
" transform="scale(0.015625)"/>
      <path id="DejaVuSans-67" d="M 2906 1791 
Q 2906 2416 2648 2759 
Q 2391 3103 1925 3103 
Q 1463 3103 1205 2759 
Q 947 2416 947 1791 
Q 947 1169 1205 825 
Q 1463 481 1925 481 
Q 2391 481 2648 825 
Q 2906 1169 2906 1791 
z
M 3481 434 
Q 3481 -459 3084 -895 
Q 2688 -1331 1869 -1331 
Q 1566 -1331 1297 -1286 
Q 1028 -1241 775 -1147 
L 775 -588 
Q 1028 -725 1275 -790 
Q 1522 -856 1778 -856 
Q 2344 -856 2625 -561 
Q 2906 -266 2906 331 
L 2906 616 
Q 2728 306 2450 153 
Q 2172 0 1784 0 
Q 1141 0 747 490 
Q 353 981 353 1791 
Q 353 2603 747 3093 
Q 1141 3584 1784 3584 
Q 2172 3584 2450 3431 
Q 2728 3278 2906 2969 
L 2906 3500 
L 3481 3500 
L 3481 434 
z
" transform="scale(0.015625)"/>
      <path id="DejaVuSans-20" transform="scale(0.015625)"/>
      <path id="DejaVuSans-6e" d="M 3513 2113 
L 3513 0 
L 2938 0 
L 2938 2094 
Q 2938 2591 2744 2837 
Q 2550 3084 2163 3084 
Q 1697 3084 1428 2787 
Q 1159 2491 1159 1978 
L 1159 0 
L 581 0 
L 581 3500 
L 1159 3500 
L 1159 2956 
Q 1366 3272 1645 3428 
Q 1925 3584 2291 3584 
Q 2894 3584 3203 3211 
Q 3513 2838 3513 2113 
z
" transform="scale(0.015625)"/>
      <path id="DejaVuSans-74" d="M 1172 4494 
L 1172 3500 
L 2356 3500 
L 2356 3053 
L 1172 3053 
L 1172 1153 
Q 1172 725 1289 603 
Q 1406 481 1766 481 
L 2356 481 
L 2356 0 
L 1766 0 
Q 1100 0 847 248 
Q 594 497 594 1153 
L 594 3053 
L 172 3053 
L 172 3500 
L 594 3500 
L 594 4494 
L 1172 4494 
z
" transform="scale(0.015625)"/>
      <path id="DejaVuSans-70" d="M 1159 525 
L 1159 -1331 
L 581 -1331 
L 581 3500 
L 1159 3500 
L 1159 2969 
Q 1341 3281 1617 3432 
Q 1894 3584 2278 3584 
Q 2916 3584 3314 3078 
Q 3713 2572 3713 1747 
Q 3713 922 3314 415 
Q 2916 -91 2278 -91 
Q 1894 -91 1617 61 
Q 1341 213 1159 525 
z
M 3116 1747 
Q 3116 2381 2855 2742 
Q 2594 3103 2138 3103 
Q 1681 3103 1420 2742 
Q 1159 2381 1159 1747 
Q 1159 1113 1420 752 
Q 1681 391 2138 391 
Q 2594 391 2855 752 
Q 3116 1113 3116 1747 
z
" transform="scale(0.015625)"/>
      <path id="DejaVuSans-72" d="M 2631 2963 
Q 2534 3019 2420 3045 
Q 2306 3072 2169 3072 
Q 1681 3072 1420 2755 
Q 1159 2438 1159 1844 
L 1159 0 
L 581 0 
L 581 3500 
L 1159 3500 
L 1159 2956 
Q 1341 3275 1631 3429 
Q 1922 3584 2338 3584 
Q 2397 3584 2469 3576 
Q 2541 3569 2628 3553 
L 2631 2963 
z
" transform="scale(0.015625)"/>
      <path id="DejaVuSans-64" d="M 2906 2969 
L 2906 4863 
L 3481 4863 
L 3481 0 
L 2906 0 
L 2906 525 
Q 2725 213 2448 61 
Q 2172 -91 1784 -91 
Q 1150 -91 751 415 
Q 353 922 353 1747 
Q 353 2572 751 3078 
Q 1150 3584 1784 3584 
Q 2172 3584 2448 3432 
Q 2725 3281 2906 2969 
z
M 947 1747 
Q 947 1113 1208 752 
Q 1469 391 1925 391 
Q 2381 391 2643 752 
Q 2906 1113 2906 1747 
Q 2906 2381 2643 2742 
Q 2381 3103 1925 3103 
Q 1469 3103 1208 2742 
Q 947 2381 947 1747 
z
" transform="scale(0.015625)"/>
      <path id="DejaVuSans-79" d="M 2059 -325 
Q 1816 -950 1584 -1140 
Q 1353 -1331 966 -1331 
L 506 -1331 
L 506 -850 
L 844 -850 
Q 1081 -850 1212 -737 
Q 1344 -625 1503 -206 
L 1606 56 
L 191 3500 
L 800 3500 
L 1894 763 
L 2988 3500 
L 3597 3500 
L 2059 -325 
z
" transform="scale(0.015625)"/>
      <path id="DejaVuSans-6f" d="M 1959 3097 
Q 1497 3097 1228 2736 
Q 959 2375 959 1747 
Q 959 1119 1226 758 
Q 1494 397 1959 397 
Q 2419 397 2687 759 
Q 2956 1122 2956 1747 
Q 2956 2369 2687 2733 
Q 2419 3097 1959 3097 
z
M 1959 3584 
Q 2709 3584 3137 3096 
Q 3566 2609 3566 1747 
Q 3566 888 3137 398 
Q 2709 -91 1959 -91 
Q 1206 -91 779 398 
Q 353 888 353 1747 
Q 353 2609 779 3096 
Q 1206 3584 1959 3584 
z
" transform="scale(0.015625)"/>
      <path id="DejaVuSans-76" d="M 191 3500 
L 800 3500 
L 1894 563 
L 2988 3500 
L 3597 3500 
L 2284 0 
L 1503 0 
L 191 3500 
z
" transform="scale(0.015625)"/>
      <path id="DejaVuSans-69" d="M 603 3500 
L 1178 3500 
L 1178 0 
L 603 0 
L 603 3500 
z
M 603 4863 
L 1178 4863 
L 1178 4134 
L 603 4134 
L 603 4863 
z
" transform="scale(0.015625)"/>
      <path id="DejaVuSans-6d" d="M 3328 2828 
Q 3544 3216 3844 3400 
Q 4144 3584 4550 3584 
Q 5097 3584 5394 3201 
Q 5691 2819 5691 2113 
L 5691 0 
L 5113 0 
L 5113 2094 
Q 5113 2597 4934 2840 
Q 4756 3084 4391 3084 
Q 3944 3084 3684 2787 
Q 3425 2491 3425 1978 
L 3425 0 
L 2847 0 
L 2847 2094 
Q 2847 2600 2669 2842 
Q 2491 3084 2119 3084 
Q 1678 3084 1418 2786 
Q 1159 2488 1159 1978 
L 1159 0 
L 581 0 
L 581 3500 
L 1159 3500 
L 1159 2956 
Q 1356 3278 1631 3431 
Q 1906 3584 2284 3584 
Q 2666 3584 2933 3390 
Q 3200 3197 3328 2828 
z
" transform="scale(0.015625)"/>
     </defs>
     <use xlink:href="#DejaVuSans-4d"/>
     <use xlink:href="#DejaVuSans-65" x="86.279297"/>
     <use xlink:href="#DejaVuSans-73" x="147.802734"/>
     <use xlink:href="#DejaVuSans-73" x="199.902344"/>
     <use xlink:href="#DejaVuSans-61" x="252.001953"/>
     <use xlink:href="#DejaVuSans-67" x="313.28125"/>
     <use xlink:href="#DejaVuSans-65" x="376.757812"/>
     <use xlink:href="#DejaVuSans-73" x="438.28125"/>
     <use xlink:href="#DejaVuSans-20" x="490.380859"/>
     <use xlink:href="#DejaVuSans-73" x="522.167969"/>
     <use xlink:href="#DejaVuSans-65" x="574.267578"/>
     <use xlink:href="#DejaVuSans-6e" x="635.791016"/>
     <use xlink:href="#DejaVuSans-74" x="699.169922"/>
     <use xlink:href="#DejaVuSans-20" x="738.378906"/>
     <use xlink:href="#DejaVuSans-70" x="770.166016"/>
     <use xlink:href="#DejaVuSans-65" x="833.642578"/>
     <use xlink:href="#DejaVuSans-72" x="895.166016"/>
     <use xlink:href="#DejaVuSans-20" x="936.279297"/>
     <use xlink:href="#DejaVuSans-64" x="968.066406"/>
     <use xlink:href="#DejaVuSans-61" x="1031.542969"/>
     <use xlink:href="#DejaVuSans-79" x="1092.822266"/>
     <use xlink:href="#DejaVuSans-20" x="1152.001953"/>
     <use xlink:href="#DejaVuSans-6f" x="1183.789062"/>
     <use xlink:href="#DejaVuSans-76" x="1244.970703"/>
     <use xlink:href="#DejaVuSans-65" x="1304.150391"/>
     <use xlink:href="#DejaVuSans-72" x="1365.673828"/>
     <use xlink:href="#DejaVuSans-20" x="1406.787109"/>
     <use xlink:href="#DejaVuSans-61" x="1438.574219"/>
     <use xlink:href="#DejaVuSans-20" x="1499.853516"/>
     <use xlink:href="#DejaVuSans-74" x="1531.640625"/>
     <use xlink:href="#DejaVuSans-69" x="1570.849609"/>
     <use xlink:href="#DejaVuSans-6d" x="1598.632812"/>
     <use xlink:href="#DejaVuSans-65" x="1696.044922"/>
     <use xlink:href="#DejaVuSans-20" x="1757.568359"/>
     <use xlink:href="#DejaVuSans-70" x="1789.355469"/>
     <use xlink:href="#DejaVuSans-65" x="1852.832031"/>
     <use xlink:href="#DejaVuSans-72" x="1914.355469"/>
     <use xlink:href="#DejaVuSans-69" x="1955.46875"/>
     <use xlink:href="#DejaVuSans-6f" x="1983.251953"/>
     <use xlink:href="#DejaVuSans-64" x="2044.433594"/>
    </g>
   </g>
  </g>
 </g>
 <defs>
  <clipPath id="pe62d6e2876">
   <rect x="243" y="51.84" width="1506.6" height="332.64"/>
  </clipPath>
 </defs>
</svg>
